<svg xmlns="http://www.w3.org/2000/svg" width="12.1" height="9.347" viewBox="0 0 12.1 9.347">
  <g id="email" transform="translate(0.15 -59.583)">
    <g id="Group_1914" data-name="Group 1914" transform="translate(0 59.733)">
      <g id="Group_1913" data-name="Group 1913" transform="translate(0 0)">
        <path id="Path_28056" data-name="Path 28056" d="M11.21,59.733H.59a.59.59,0,0,0-.59.59V68.19a.59.59,0,0,0,.59.59H11.21a.59.59,0,0,0,.59-.59V60.323A.59.59,0,0,0,11.21,59.733Zm.2,8.457a.2.2,0,0,1-.2.2H.59a.2.2,0,0,1-.2-.2V60.323a.2.2,0,0,1,.2-.2H11.21a.2.2,0,0,1,.2.2Z" transform="translate(0 -59.733)" fill="#fda14d" stroke="#fda14d" stroke-width="0.3"/>
        <path id="Path_28057" data-name="Path 28057" d="M44.18,93.866a.2.2,0,0,0-.144.045L39.5,97.722a.393.393,0,0,1-.506,0l-4.537-3.811a.2.2,0,0,0-.253.3l4.537,3.811a.786.786,0,0,0,1.012,0l4.537-3.811a.2.2,0,0,0-.109-.347Z" transform="translate(-33.346 -93.078)" fill="#fda14d" stroke="#fda14d" stroke-width="0.3"/>
        <path id="Path_28058" data-name="Path 28058" d="M37,272.93a.2.2,0,0,0-.19.061l-2.753,2.95a.2.2,0,1,0,.288.268l2.753-2.95a.2.2,0,0,0-.1-.329Z" transform="translate(-33.216 -268.012)" fill="#fda14d" stroke="#fda14d" stroke-width="0.3"/>
        <path id="Path_28059" data-name="Path 28059" d="M341.545,272.991a.2.2,0,1,0-.288.268l2.753,2.95a.2.2,0,0,0,.288-.268Z" transform="translate(-333.337 -268.012)" fill="#fda14d" stroke="#fda14d" stroke-width="0.3"/>
      </g>
    </g>
  </g>
</svg>
