<svg xmlns="http://www.w3.org/2000/svg" width="12.353" height="12.352" viewBox="0 0 12.353 12.352">
  <g id="phone" transform="translate(0.149 0.15)">
    <path id="Path_28060" data-name="Path 28060" d="M3.345,8.011A12.786,12.786,0,0,0,7.6,11.342a6.619,6.619,0,0,0,2.38.7c.057,0,.112,0,.17,0a1.971,1.971,0,0,0,1.528-.657.054.054,0,0,0,.01-.012,6.435,6.435,0,0,1,.482-.5c.117-.112.237-.23.352-.35a1.206,1.206,0,0,0,0-1.8l-1.5-1.5a1.215,1.215,0,0,0-.879-.4,1.256,1.256,0,0,0-.889.4l-.894.894c-.082-.047-.167-.09-.247-.13a3.088,3.088,0,0,1-.275-.15A9.462,9.462,0,0,1,5.57,5.791a5.449,5.449,0,0,1-.764-1.219c.235-.212.454-.435.667-.652.075-.077.152-.155.23-.232a1.28,1.28,0,0,0,.415-.9,1.27,1.27,0,0,0-.415-.9l-.744-.744C4.87,1.059,4.788.974,4.7.887,4.538.717,4.366.542,4.2.385A1.245,1.245,0,0,0,3.317,0a1.282,1.282,0,0,0-.889.387l-.934.934A1.919,1.919,0,0,0,.922,2.55a4.622,4.622,0,0,0,.347,2A11.623,11.623,0,0,0,3.345,8.011ZM1.532,2.6a1.321,1.321,0,0,1,.4-.849L2.858.824A.673.673,0,0,1,3.317.612a.638.638,0,0,1,.45.217c.167.155.325.317.494.489l.26.265.744.744a.678.678,0,0,1,.235.467.678.678,0,0,1-.235.467L5.033,3.5c-.232.235-.45.457-.689.669l-.012.012a.488.488,0,0,0-.125.554l.007.02A5.877,5.877,0,0,0,5.09,6.178,9.986,9.986,0,0,0,7.5,8.371a3.574,3.574,0,0,0,.33.18A3.088,3.088,0,0,1,8.1,8.7l.027.015a.522.522,0,0,0,.242.062.53.53,0,0,0,.372-.17l.934-.934a.661.661,0,0,1,.457-.222.627.627,0,0,1,.442.222l1.506,1.5a.6.6,0,0,1-.007.941c-.1.112-.215.22-.332.332a7.192,7.192,0,0,0-.522.542,1.371,1.371,0,0,1-1.071.454c-.042,0-.087,0-.13,0A6.013,6.013,0,0,1,7.867,10.8,12.146,12.146,0,0,1,3.819,7.627,11.125,11.125,0,0,1,1.846,4.343,4.028,4.028,0,0,1,1.532,2.6Z" transform="translate(-0.912 0)" fill="#fda14d" stroke="#fda14d" stroke-width="0.3"/>
  </g>
</svg>
