<svg xmlns="http://www.w3.org/2000/svg" width="18.543" height="18.632" viewBox="0 0 18.543 18.632">
  <path id="whatsapp" d="M16.091,2.708A9.235,9.235,0,0,0,1.56,13.848L.25,18.632l4.895-1.284a9.223,9.223,0,0,0,4.412,1.124h0A9.237,9.237,0,0,0,16.091,2.708ZM9.56,16.913h0a7.664,7.664,0,0,1-3.906-1.07l-.28-.166-2.9.762.775-2.832-.183-.29a7.674,7.674,0,1,1,6.5,3.6Zm4.209-5.747c-.231-.116-1.365-.673-1.576-.751s-.365-.115-.519.116-.6.751-.731.9-.269.173-.5.058a6.3,6.3,0,0,1-1.855-1.145,6.959,6.959,0,0,1-1.283-1.6c-.134-.231,0-.344.1-.471a6.526,6.526,0,0,0,.577-.789.424.424,0,0,0-.019-.4c-.058-.115-.519-1.251-.711-1.713s-.377-.389-.519-.4-.288-.008-.442-.008a.847.847,0,0,0-.615.289,2.587,2.587,0,0,0-.807,1.925,4.488,4.488,0,0,0,.942,2.386,10.283,10.283,0,0,0,3.941,3.483,13.205,13.205,0,0,0,1.315.486,3.163,3.163,0,0,0,1.453.091,2.377,2.377,0,0,0,1.557-1.1,1.928,1.928,0,0,0,.134-1.1C14.154,11.339,14,11.281,13.77,11.166Zm0,0" transform="translate(-0.25)" fill="#fda14d"/>
</svg>
